<svg xmlns="http://www.w3.org/2000/svg" width="192" height="192" viewBox="0 0 192 192" role="img" aria-labelledby="title">
  <title>MUUC Trip Leader</title>
  <defs>
    <linearGradient id="overlay" x1="0" y1="0" x2="0" y2="1">
      <stop offset="0%" stop-color="#000000" stop-opacity="0.15"/>
      <stop offset="100%" stop-color="#000000" stop-opacity="0.05"/>
    </linearGradient>
  </defs>
  <rect width="192" height="192" fill="#ffffff"/>
  <clipPath id="clip">
    <rect width="192" height="192" rx="36"/>
  </clipPath>
  <g clip-path="url(#clip)">
    <image href="/static/icons/muuc-logo-backdrop.png" x="0" y="0" width="192" height="192" preserveAspectRatio="xMidYMid slice"/>
    <rect width="192" height="192" fill="url(#overlay)"/>
  </g>
  <g transform="translate(22 30)">
    <ellipse cx="74" cy="122" rx="88" ry="28" fill="#0a4d56" opacity="0.72"/>
    <path d="M6 114 H142 L116 40 A28 28 0 0 0 60 40 Z" fill="#f7fbff"/>
    <path d="M48 114 H108" stroke="#0f6d7a" stroke-width="5" stroke-linecap="round"/>
    <path d="M74 118 V70" stroke="#0f6d7a" stroke-width="5" stroke-linecap="round"/>
    <path d="M74 76 L44 98 H104" stroke="#0f6d7a" stroke-width="5" stroke-linecap="round" stroke-linejoin="round"/>
    <circle cx="74" cy="56" r="6" fill="#0a4d56"/>
    <path d="M6 114 C18 94 58 84 74 84 C90 84 130 94 142 114" fill="none" stroke="#ffffff" stroke-width="8" opacity="0.4"/>
    <path d="M142 114 C130 102 112 94 74 94 C36 94 18 102 6 114" fill="none" stroke="#ffffff" stroke-width="3" opacity="0.45"/>
  </g>
  <circle cx="162" cy="34" r="12" fill="#ffffff" opacity="0.85"/>
</svg>
